<svg xmlns="http://www.w3.org/2000/svg" viewBox="0 0 1074.69 178.5" height="44" width="283"><defs><style>.cls-1{fill:#fff;}</style></defs><title>アセット 2</title><g id="レイヤー_2" data-name="レイヤー 2"><g id="レイヤー_1-2" data-name="レイヤー 1"><g id="レイヤー_2-2" data-name="レイヤー 2"><g id="レイヤー_1-2-2" data-name="レイヤー 1-2"><path class="cls-1" d="M361.81,99.86c-1.2-2-9.51-14.87-15.52-21.32L362,68.92c5.25,4.81,12.46,14.21,17.28,23l-13.23,8h17.16V65.31h19.24V99.86h16L407.29,92.1c6.24-6.78,12.8-15.86,15.53-23.29l18.48,8.42a127.91,127.91,0,0,1-16.84,22.63H444.9v17.49H414.73V147.2c0,1.31,0,2.73,2.18,2.73h6.35a3.17,3.17,0,0,0,3.17-2.84,96.09,96.09,0,0,0,1.09-14.87l18,4.59c-1.42,24.49-3.06,31.38-14.43,31.38H408.5c-3.72,0-12,0-12-10.06V117.35h-9.84c-.66,19.68-5.14,41.33-37.17,52.81l-9.19-17.82c20.56-7,28.1-14.11,28.43-35H341.37V99.86Z"/><path class="cls-1" d="M572.05,87.83H529.3v3.61h36.29v43.84H543.18c3.61,3.17,11.7,10.28,30.61,15.42L563,169c-17.38-8-26.57-16.73-33.67-25.26v25.69H511.15v-25c-7.33,9.18-21.54,19.13-34.44,24.6l-10.5-18c20-5.91,27-12.25,30.94-15.75H475.07V91.44h36.08V87.83H468.51V72.2h42.64V64.87H529.3V72.2h42.75Zm-79.82,20.23h18.92v-4.59H492.23Zm0,15.2h18.92v-4.49H492.23Zm37.07-19.79v4.59h19.46v-4.59Zm0,15.3v4.49h19.46v-4.49Z"/><path class="cls-1" d="M656.11,78.32V65.42h17.17v12.9h21.86V95.49H673.28v8.74h23.39V121.4H678A65.52,65.52,0,0,0,698.75,143l-6.67,20.67c-11.81-9.08-18-22.74-18.8-24.49v30.17H656.11V137.58c-3,7.32-7,16.4-19.24,26.78l-10.61-17.27c14.76-9.4,19.46-17.6,23.62-25.69H632.82a54.08,54.08,0,0,0,5,5.79l-10.16,13.34c-4.49-9.29-4.82-10.93-5.58-15.31v44.17H605.49V132.44c-2.51,7.11-5,13.12-9.51,19.35l-5.14-23.94c6.45-8.09,9.62-14.76,13.56-28.32H592.92V83h12.57V65.42h16.62V83h9.29v5.25c4.16-8.31,5.36-17,6-21.21L653,68.24c-1,6.23-1.31,8.2-1.75,10.06Zm-17.05,25.91-7.66-6.34v1.64h-9.29v2.52c.87,2.4,3.28,8.52,9.29,17.38v-15.2Zm17.05,0V95.49H646.05a73.44,73.44,0,0,1-4.48,8.74Z"/><path class="cls-1" d="M721,148.29c3.5,0,9.19,0,19.46-.87V122.93h-16v-17.6h50.62v17.6H759V146c7-.66,14-1.42,20-2.41l.22,17.17c-13.56,2.51-17.82,3-56.31,6.67Zm94.79-68.66h9.84V97.24H796.26c.66,10.05,1.86,30.61,6.56,41.87.33.76,2.85,6.89,5.69,6.89,3.61,0,10.28-7.55,13.23-14.22l5.9,21.21c-2.95,5.8-8.42,16.62-19.35,16.62a19,19,0,0,1-12.68-5.25c-16-16.07-17.28-48.65-18-67.12H722.25V79.63h54.66c0-2.07-.44-12.13-.44-14.43h19.36V79.63h8.41a49.73,49.73,0,0,0-6-10.16L815,64.65a119.24,119.24,0,0,1,7.76,12.69Z"/><path class="cls-1" d="M869.4,102.37c-8.31,5-12,6.45-16,7.88l-9.07-18.59c27.47-10.17,38-19.66,43.54-27.11h21.76c4.26,4.81,15.2,16.94,43,26.78l-9.41,18.37a116.44,116.44,0,0,1-15.52-7.76v6.78H869.4Zm62.1,68.12c-1.43-2.74-2.63-4.92-4.27-7.66-41.54,3.17-46.25,3.61-74.67,4.81l-2.95-18.8h16.07a118.78,118.78,0,0,0,6.45-16.62h-23V114.73H947.9v17.49H927.45c10.06,11.26,17.49,22.85,21.65,29.3ZM913.78,92.75A113.38,113.38,0,0,1,898.7,79.2c-1.64,2-4.7,5.57-15,13.55Zm7.77,39.47H892c-1,2.63-3.94,9.73-7.33,16.51,2.52,0,28-.77,32.36-.87-4-5.47-5.9-7.66-7.87-10.06Z"/><path class="cls-1" d="M1003,169.28H984.51V134.63c-4.81,4-8,6.23-10.93,8.31l-4.05-22.09c11.48-6.67,21.21-17.38,24.82-24.27H971.72V79.74h12.79V65.31H1003V79.74h10.6V96.58c-1.42,3.83-2.84,7.33-7.76,14.76a54.5,54.5,0,0,0,14.54,11.48l-9,17.27a60.54,60.54,0,0,1-8.42-10Zm31-104h18.69V91.22h20.67v18.59h-20.67v38.37h22v18.26h-65.05V148.18H1034V109.81h-18.7V91.22H1034Z"/><path class="cls-1" d="M150,0C67.4-.32.19,39.4,0,88.66s66.69,89.51,149.27,89.84,149.78-39.4,150-88.66S232.55.33,150,0Zm32.45,162.75c-62.29,0-112.87-32.36-112.86-72.21s50.59-72.17,112.89-72.16,112.87,32.36,112.86,72.2-50.62,72.18-112.92,72.17Z"/><path class="cls-1" d="M150.94,44.63c-44.19,0-80.07,20.58-80.07,45.93s35.88,45.94,80.07,45.94S231,115.92,231,90.56,195.12,44.63,150.94,44.63ZM174.56,126c-30.42,0-55.12-16.17-55.12-36.09s24.7-36.1,55.12-36.1S229.69,70,229.69,89.91,205,126,174.56,126Z"/><path class="cls-1" d="M341.79,37.41V8h7.94V21.34L359,8h9.34L357.51,22.33l11.82,15.08h-10l-9.6-13.21V37.41Z"/><path class="cls-1" d="M400.37,22.75a15.17,15.17,0,0,1-4.56,11,16.09,16.09,0,0,1-5.15,3.3,15.88,15.88,0,0,1-17.13-3.34,15.12,15.12,0,0,1-.45-21.38l.45-.45a15.44,15.44,0,0,1,5.08-3.35,16,16,0,0,1,12.08,0,15.72,15.72,0,0,1,5.12,3.35,15.1,15.1,0,0,1,4.56,10.91ZM384.65,31.4a7,7,0,0,0,5.52-2.46,9,9,0,0,0,2.18-6.19,9,9,0,0,0-2.21-6.17A7.38,7.38,0,0,0,379.72,16a7.93,7.93,0,0,0-.58.58A9,9,0,0,0,377,22.75,9,9,0,0,0,379.1,29,7.09,7.09,0,0,0,384.65,31.4Z"/><path class="cls-1" d="M408.07,37.41V14.93h-6.59V8h21.21v7h-6.6V37.41Z"/><path class="cls-1" d="M454.43,22.75a15.35,15.35,0,0,1-1.16,5.95,15.15,15.15,0,0,1-3.4,5,16.23,16.23,0,0,1-17.2,3.3,15.32,15.32,0,0,1-5.07-3.34,14.79,14.79,0,0,1-3.45-5,15.55,15.55,0,0,1,0-11.87,14.89,14.89,0,0,1,3.45-5,15.4,15.4,0,0,1,5.07-3.35,16,16,0,0,1,12.08,0,15.72,15.72,0,0,1,5.12,3.35,15,15,0,0,1,4.56,10.91ZM438.71,31.4a7,7,0,0,0,5.52-2.46,9,9,0,0,0,2.18-6.19,9,9,0,0,0-2.21-6.17A7.38,7.38,0,0,0,433.78,16a7.93,7.93,0,0,0-.58.58,9,9,0,0,0-2.2,6.17A9,9,0,0,0,433.16,29,7.09,7.09,0,0,0,438.71,31.4Z"/><path class="cls-1" d="M490.38,9.12v8.77a12.21,12.21,0,0,0-3.29-2.69,7.52,7.52,0,0,0-3.51-.85,7.25,7.25,0,0,0-5.6,2.36,8.9,8.9,0,0,0-2.14,6.16A8.25,8.25,0,0,0,478,28.74a7.24,7.24,0,0,0,5.56,2.33,7.4,7.4,0,0,0,3.51-.85,11.78,11.78,0,0,0,3.29-2.71V36.3a19,19,0,0,1-3.8,1.39,15.85,15.85,0,0,1-3.82.46,16.32,16.32,0,0,1-4.45-.57,13.07,13.07,0,0,1-3.75-1.74,14.73,14.73,0,0,1-5-5.57,16.25,16.25,0,0,1-1.73-7.56,16.52,16.52,0,0,1,1.1-6.14,15.08,15.08,0,0,1,3.3-5,13.77,13.77,0,0,1,4.72-3.22,15.54,15.54,0,0,1,5.84-1.07,15.86,15.86,0,0,1,3.82.47A18.86,18.86,0,0,1,490.38,9.12Z"/><path class="cls-1" d="M524.29,22.75a15,15,0,0,1-4.56,10.92A16.17,16.17,0,0,1,514.58,37a16,16,0,0,1-12.05,0A15.37,15.37,0,0,1,497,12.28l.45-.45a15.44,15.44,0,0,1,5.08-3.35,16,16,0,0,1,12.08,0,15.72,15.72,0,0,1,5.12,3.35,15.1,15.1,0,0,1,4.56,10.91ZM508.57,31.4a7,7,0,0,0,5.52-2.46,9,9,0,0,0,2.18-6.19,9,9,0,0,0-2.21-6.17A7.38,7.38,0,0,0,503.64,16a7.93,7.93,0,0,0-.58.58,9,9,0,0,0-2.18,6.18A9,9,0,0,0,503,29,7.05,7.05,0,0,0,508.57,31.4Z"/><path class="cls-1" d="M528.49,37.41V8h8.38a35.91,35.91,0,0,1,6.87.45A8.66,8.66,0,0,1,547.08,10a8,8,0,0,1,2.45,3,9.76,9.76,0,0,1,.85,4.12,8.73,8.73,0,0,1-1.68,5.56,8.13,8.13,0,0,1-4.89,2.84l8,11.87h-9.07L536,25.89V37.41ZM536,21.89h1.49a6.44,6.44,0,0,0,3.79-.89,3.21,3.21,0,0,0,1.19-2.77,3.92,3.92,0,0,0-1.11-3.15,5.91,5.91,0,0,0-3.75-.93H536Z"/><path class="cls-1" d="M564.05,37.41h-7.52V8h8.38a34.1,34.1,0,0,1,6.92.48,8.06,8.06,0,0,1,3.37,1.65,8.7,8.7,0,0,1,2.49,3.36,11.57,11.57,0,0,1,.85,4.5,11.81,11.81,0,0,1-.84,4.63,8.19,8.19,0,0,1-2.5,3.29,7.82,7.82,0,0,1-2.93,1.38,24,24,0,0,1-5.41.43h-2.81Zm0-16.19h1.53a7.48,7.48,0,0,0,4-.79,3.08,3.08,0,0,0,1.14-2.7,3,3,0,0,0-1.12-2.64,7.38,7.38,0,0,0-4-.78H564Z"/><path class="cls-1" d="M612.84,22.75a15,15,0,0,1-4.57,10.92A16.11,16.11,0,0,1,591.07,37,15.29,15.29,0,0,1,586,33.67a14.94,14.94,0,0,1-3.45-5,15.64,15.64,0,0,1,0-11.87,15.14,15.14,0,0,1,3.45-5,15.4,15.4,0,0,1,5.07-3.35,16.11,16.11,0,0,1,12.09,0,15.57,15.57,0,0,1,5.11,3.35,15,15,0,0,1,3.39,5A15.22,15.22,0,0,1,612.84,22.75ZM597.12,31.4a7,7,0,0,0,5.51-2.46,8.88,8.88,0,0,0,2.18-6.19,8.86,8.86,0,0,0-2.21-6.17A7.37,7.37,0,0,0,592.19,16a8.21,8.21,0,0,0-.59.59,9,9,0,0,0-2.18,6.18A9,9,0,0,0,591.57,29,7.07,7.07,0,0,0,597.12,31.4Z"/><path class="cls-1" d="M617.86,37.41V8h8.38a35.91,35.91,0,0,1,6.87.45A8.85,8.85,0,0,1,636.46,10a8.08,8.08,0,0,1,2.44,3,9.76,9.76,0,0,1,.85,4.12,8.73,8.73,0,0,1-1.68,5.56,8.13,8.13,0,0,1-4.89,2.84l8,11.87h-9.07l-6.75-11.52V37.41Zm7.52-15.52h1.49a6.44,6.44,0,0,0,3.79-.89,3.21,3.21,0,0,0,1.19-2.77,3.92,3.92,0,0,0-1.11-3.15,5.91,5.91,0,0,0-3.75-.93h-1.61Z"/><path class="cls-1" d="M641.62,37.41,651.77,8h10.05L672,37.41h-8l-1.48-5.27h-11.4l-1.53,5.27Zm11.24-11h8l-3-9.71c-.09-.29-.22-.77-.38-1.43l-.62-2.53c-.18.72-.35,1.41-.52,2.07s-.33,1.29-.51,1.89Z"/><path class="cls-1" d="M677.36,37.41V14.93h-6.59V8H692v7h-6.59V37.41Z"/><path class="cls-1" d="M696.92,37.41V8H705V37.41Z"/><path class="cls-1" d="M741.71,22.75a15,15,0,0,1-4.57,10.92A16.11,16.11,0,0,1,719.94,37a15.32,15.32,0,0,1-5.07-3.34,15.08,15.08,0,0,1-.49-21.33c.16-.17.32-.34.49-.5a15.4,15.4,0,0,1,5.07-3.35,16.11,16.11,0,0,1,12.09,0,15.57,15.57,0,0,1,5.11,3.35,15,15,0,0,1,3.39,5A15.26,15.26,0,0,1,741.71,22.75ZM726,31.4a7,7,0,0,0,5.51-2.46,8.88,8.88,0,0,0,2.18-6.19,8.86,8.86,0,0,0-2.21-6.17A7.37,7.37,0,0,0,721.07,16a8.21,8.21,0,0,0-.59.59,9,9,0,0,0-2.18,6.18A9,9,0,0,0,720.44,29,7,7,0,0,0,726,31.4Z"/><path class="cls-1" d="M745.08,37.41V8h7.74l11.12,15.13c.21.31.57.93,1.06,1.86s1,2,1.61,3.33c-.16-1.22-.28-2.31-.35-3.26s-.11-1.79-.11-2.53V8h7.7V37.41h-7.7L755,22.21a16.64,16.64,0,0,1-1-1.86c-.49-.93-1-2-1.6-3.29.16,1.24.28,2.33.35,3.28s.11,1.8.11,2.53V37.41Z"/><path class="cls-1" d="M793.05,37.41V8h8.38a35.8,35.8,0,0,1,6.86.45A8.7,8.7,0,0,1,811.64,10a7.9,7.9,0,0,1,2.44,3,9.77,9.77,0,0,1,.86,4.12,8.73,8.73,0,0,1-1.68,5.56,8.11,8.11,0,0,1-4.9,2.84l8,11.87H807.3l-6.76-11.52V37.41Zm7.51-15.52h1.49a6.44,6.44,0,0,0,3.79-.89,3.18,3.18,0,0,0,1.2-2.77,3.89,3.89,0,0,0-1.12-3.15,5.91,5.91,0,0,0-3.75-.93h-1.61Z"/><path class="cls-1" d="M819.44,37.41V8h18v6.45H827.26v5.1h9.63v6.32h-9.63v5h10.21v6.6Z"/><path class="cls-1" d="M864.1,9.12v8.77a12.17,12.17,0,0,0-3.28-2.69,7.52,7.52,0,0,0-3.51-.85,7.25,7.25,0,0,0-5.6,2.36,8.9,8.9,0,0,0-2.14,6.16,8.25,8.25,0,0,0,2.18,5.87,7.24,7.24,0,0,0,5.56,2.33,7.4,7.4,0,0,0,3.51-.85,11.56,11.56,0,0,0,3.28-2.71V36.3a18.92,18.92,0,0,1-3.79,1.39,15.85,15.85,0,0,1-3.82.46,16.34,16.34,0,0,1-4.46-.57,12.75,12.75,0,0,1-3.74-1.74,14.73,14.73,0,0,1-5-5.57,16.25,16.25,0,0,1-1.73-7.56,16.52,16.52,0,0,1,1.1-6.14,15.08,15.08,0,0,1,3.3-5,13.77,13.77,0,0,1,4.72-3.22,15.54,15.54,0,0,1,5.84-1.07,15.86,15.86,0,0,1,3.82.47A18.59,18.59,0,0,1,864.1,9.12Z"/><path class="cls-1" d="M869.45,37.41V8h8.38a35.91,35.91,0,0,1,6.87.45A8.85,8.85,0,0,1,888.05,10a8.08,8.08,0,0,1,2.44,3,9.76,9.76,0,0,1,.85,4.12,8.73,8.73,0,0,1-1.68,5.56,8.13,8.13,0,0,1-4.89,2.84l8,11.87H883.7L877,25.89V37.41ZM877,21.89h1.49a6.44,6.44,0,0,0,3.79-.89,3.21,3.21,0,0,0,1.19-2.77,3.92,3.92,0,0,0-1.11-3.15,5.91,5.91,0,0,0-3.75-.93H877Z"/><path class="cls-1" d="M895.66,8h8V22.29c0,2.1.06,3.61.16,4.53a8.68,8.68,0,0,0,.55,2.3A3.26,3.26,0,0,0,906,30.84a5.88,5.88,0,0,0,2.79.6,5.82,5.82,0,0,0,2.78-.6,3.39,3.39,0,0,0,1.62-1.72,8.68,8.68,0,0,0,.55-2.3c.1-.92.16-2.43.16-4.53V8h8V23.54a31.08,31.08,0,0,1-.59,7.14,9.42,9.42,0,0,1-2,3.93,9.16,9.16,0,0,1-4.14,2.69,23.36,23.36,0,0,1-12.79,0,9.19,9.19,0,0,1-4.15-2.69,9.54,9.54,0,0,1-2-3.93,30.54,30.54,0,0,1-.6-7.14V8Z"/><path class="cls-1" d="M927.32,37.41V8h8.11V37.41Z"/><path class="cls-1" d="M947,37.41V14.93h-6.59V8h21.21v7H955V37.41Z"/><path class="cls-1" d="M998.5,37.41H976l13.21-15.64A13.14,13.14,0,0,0,991,19.18a4.77,4.77,0,0,0,.58-2.16,3.41,3.41,0,0,0-1-2.52,3.48,3.48,0,0,0-2.56-1,3.6,3.6,0,0,0-2.9,1.21,5.27,5.27,0,0,0-1,3.5v.36H977v-.2a10.59,10.59,0,0,1,3-7.86,10.92,10.92,0,0,1,8-2.88,11.65,11.65,0,0,1,7.88,2.56,8.54,8.54,0,0,1,2.9,6.81,9.23,9.23,0,0,1-.92,4,17.75,17.75,0,0,1-3.06,4.29l-5.3,5.85h9Z"/><path class="cls-1" d="M1025,23.19q0,7-3,11a10.26,10.26,0,0,1-14.4,1.86,9.75,9.75,0,0,1-1.92-1.93q-3-4.08-3-11.21t3-11.17a10.25,10.25,0,0,1,16.36,0Q1025,15.82,1025,23.19Zm-14.86-.28A20,20,0,0,0,1011,30a2.91,2.91,0,0,0,5.65,0,20.46,20.46,0,0,0,.89-7,20.49,20.49,0,0,0-.89-7c-.6-1.5-1.54-2.26-2.81-2.26A3,3,0,0,0,1011,16a20.49,20.49,0,0,0-.87,7Z"/><path class="cls-1" d="M1033.3,37.41V14.93H1027l3.46-6.67h10.17V37.41Z"/><path class="cls-1" d="M1059.3,27.21a12.31,12.31,0,0,1-1.46.33,11,11,0,0,1-1.62.12A8.12,8.12,0,0,1,1050,25a9.4,9.4,0,0,1-2.45-6.64,10.39,10.39,0,0,1,3-7.82,12.88,12.88,0,0,1,16.33,0,10.23,10.23,0,0,1,3,7.78,15,15,0,0,1-1.16,5.52,44.2,44.2,0,0,1-4.11,7.36l-4.08,6.22h-8.18Zm-.36-4.7a4.31,4.31,0,0,0,3.25-1.21,4.49,4.49,0,0,0,1.19-3.29,4.51,4.51,0,0,0-1.2-3.31,4.94,4.94,0,0,0-6.49,0,4.51,4.51,0,0,0-1.2,3.31,4.43,4.43,0,0,0,1.2,3.29,4.32,4.32,0,0,0,3.25,1.21Z"/></g></g></g></g></svg>
